<svg width="79" height="52" viewBox="0 0 79 52" fill="none" xmlns="http://www.w3.org/2000/svg">
<path d="M37.4622 4.53083C37.8269 4.1014 38.2867 3.75168 38.8096 3.50593C39.3325 3.26018 39.9061 3.12428 40.4905 3.10764H47.1677C48.5509 3.09392 49.8843 3.59232 50.8797 4.49512L50.922 4.53083C51.56 5.13045 52.4612 6.00999 53.2355 6.77758C53.741 7.27443 54.3483 7.6698 55.0209 7.9398C55.6935 8.2098 56.4173 8.34882 57.1487 8.34845H63.2899C76.5374 8.34845 76.5374 17.6227 76.5374 17.6227" stroke="#263238" stroke-width="3" stroke-miterlimit="10" stroke-linecap="round"/>
<path d="M14.3012 22.9873H24.2105L30.4838 28.8797C35.318 33.1168 38.9894 28.8034 38.9894 28.8034L39.6446 29.4192C42.4261 31.6019 46.1432 28.0804 46.1432 28.0804L47.4191 26.8812C47.4191 26.8812 49.4478 28.8358 51.8675 26.5656C52.3701 26.1472 52.7415 25.6077 52.9415 25.0054C53.1416 24.403 53.1628 23.7607 53.0027 23.1479C52.9772 23.044 52.9461 22.9414 52.9094 22.8404C52.7974 22.522 52.64 22.2193 52.4415 21.9406L40.835 13.1247L44.7266 9.61867L38.6623 15.0875C38.6623 15.0875 34.9321 18.7493 31.7769 15.7829C28.6217 12.8164 31.6155 9.0791 31.6155 9.0791C31.6155 9.0791 37.572 4.30241 37.572 3.48046C37.572 2.65851 36.2961 2.28119 36.2961 2.28119H30.7246C28.1728 2.28119 27.3225 3.62811 27.3225 3.62811L23.0995 7.59748C23.0995 7.59748 21.0751 7.5058 19.3529 7.53339C13.7815 7.62508 1.76758 6.98163 1.76758 17.219" stroke="#263238" stroke-width="3" stroke-miterlimit="10" stroke-linecap="round"/>
<path d="M64.6633 23.4985H52.917" stroke="#263238" stroke-width="3" stroke-miterlimit="10" stroke-linecap="round"/>
<path d="M65.8969 23.1504C68.8609 23.1504 71.2637 20.8919 71.2637 18.1059C71.2637 15.3199 68.8609 13.0615 65.8969 13.0615C62.9329 13.0615 60.53 15.3199 60.53 18.1059C60.53 20.8919 62.9329 23.1504 65.8969 23.1504Z" stroke="#263238" stroke-width="3" stroke-miterlimit="10" stroke-linecap="round"/>
<path d="M12.7265 23.1504C15.6905 23.1504 18.0933 20.8919 18.0933 18.1059C18.0933 15.3199 15.6905 13.0615 12.7265 13.0615C9.76244 13.0615 7.35962 15.3199 7.35962 18.1059C7.35962 20.8919 9.76244 23.1504 12.7265 23.1504Z" stroke="#263238" stroke-width="3" stroke-miterlimit="10" stroke-linecap="round"/>
<path d="M10.8031 38.717H14.2562V51.641H10.8031V50.277C10.2179 50.8231 9.53204 51.2646 8.77883 51.5801C8.07985 51.8491 7.33106 51.985 6.57581 51.9802C5.70464 51.9832 4.84278 51.8115 4.04784 51.4765C3.25291 51.1416 2.54317 50.651 1.966 50.0377C0.660351 48.7326 -0.044221 46.9958 0.0055478 45.205C-0.0688173 43.402 0.60681 41.6427 1.88918 40.3001C2.45868 39.6903 3.16169 39.2035 3.95005 38.873C4.73841 38.5425 5.5935 38.3761 6.45668 38.3852C7.25461 38.3807 8.04501 38.5304 8.77883 38.825C9.53175 39.1396 10.2131 39.5875 10.7859 40.1443L10.8031 38.717ZM7.17746 41.3752C6.67942 41.3641 6.18461 41.4532 5.7262 41.6365C5.26778 41.8198 4.85637 42.0931 4.51951 42.4381C3.83194 43.2057 3.45488 44.1768 3.45488 45.1802C3.45488 46.1837 3.83194 47.1548 4.51951 47.9224C4.85353 48.2696 5.26278 48.5456 5.71977 48.7318C6.17675 48.9179 6.67084 49.0099 7.16882 49.0015C7.67274 49.0146 8.17386 48.9266 8.63873 48.7433C9.10361 48.56 9.5216 48.2856 9.86481 47.9386C10.2305 47.5613 10.5134 47.12 10.6972 46.6397C10.8811 46.1595 10.9622 45.6499 10.9361 45.1401C10.9589 44.641 10.876 44.1425 10.6921 43.6738C10.5082 43.2051 10.227 42.7754 9.86481 42.4097C9.51807 42.0708 9.09984 41.8036 8.63694 41.6254C8.17405 41.4471 7.67668 41.3616 7.17662 41.3744L7.17746 41.3752Z" fill="#263238"/>
<path d="M15.5088 38.7171H16.7338C16.7055 37.7156 16.7343 36.7134 16.8201 35.7149C16.8515 35.3874 16.9515 35.069 17.1145 34.7781C17.2775 34.4872 17.5001 34.2295 17.7696 34.0199C18.4396 33.5675 19.2556 33.347 20.0789 33.3959C20.9092 33.4186 21.7292 33.5756 22.5029 33.86V36.3307C22.1057 36.2139 21.6938 36.1468 21.2779 36.1311C20.9623 36.1068 20.648 36.1906 20.3931 36.3673C20.227 36.5785 20.1537 36.8417 20.1885 37.1024V38.7016H22.3743V41.4442H20.1885V51.6256H16.7354V41.4588H15.5174L15.5088 38.7171Z" fill="#263238"/>
<path d="M23.3427 38.717H24.5677C24.5394 37.7156 24.5682 36.7134 24.654 35.7149C24.6857 35.3867 24.7867 35.0678 24.9511 34.7768C25.1155 34.4857 25.3399 34.2284 25.6113 34.0199C26.2794 33.5669 27.0942 33.3463 27.9163 33.3959C28.748 33.4178 29.5695 33.5746 30.3446 33.8592V36.3299C29.946 36.2127 29.5326 36.1456 29.1153 36.1303C28.7997 36.1059 28.4853 36.1897 28.2304 36.3664C28.0678 36.5791 27.9963 36.8416 28.0302 37.1016V38.7008H30.1995V41.4433H28.0138V51.6248H24.5608V41.4596H23.3384L23.3427 38.717Z" fill="#263238"/>
<path d="M45.0882 41.3273L42.217 42.8146C41.7688 42.3463 41.2232 41.9693 40.6139 41.707C40.0232 41.4916 39.3932 41.3871 38.7596 41.3995C38.1872 41.3764 37.6156 41.4606 37.0782 41.6473C36.5408 41.834 36.0484 42.1193 35.6295 42.4868C35.2319 42.8478 34.9199 43.2838 34.714 43.766C34.5081 44.2483 34.413 44.766 34.4347 45.2853C34.4171 45.7841 34.51 46.2809 34.7077 46.7441C34.9054 47.2073 35.2034 47.6268 35.5829 47.9759C35.9891 48.3294 36.4659 48.6037 36.9858 48.7828C37.5056 48.9619 38.0581 49.0423 38.6112 49.0193C39.2936 49.0521 39.9747 48.9352 40.6007 48.6777C41.2267 48.4203 41.7803 48.0294 42.2178 47.5361L44.9354 49.2871C44.2042 50.1778 43.2545 50.8889 42.1672 51.3595C41.08 51.83 39.8877 52.046 38.6923 51.9891C37.6478 52.0437 36.6027 51.8923 35.6241 51.5447C34.6456 51.197 33.7552 50.6607 33.0104 49.9703C32.2247 49.2253 31.6355 48.3178 31.2899 47.3204C30.9443 46.323 30.8519 45.2634 31.0202 44.2265C31.1884 43.1895 31.6126 42.204 32.2587 41.3487C32.9049 40.4935 33.755 39.7922 34.7412 39.3012C35.9742 38.6913 37.35 38.3809 38.7433 38.3981C40.0167 38.379 41.2771 38.642 42.4224 39.1657C43.4913 39.6626 44.4085 40.4063 45.0882 41.3273Z" fill="#263238"/>
<path d="M56.8726 38.7171H60.3256V51.641H56.8726V50.273C56.2861 50.8195 55.5987 51.261 54.8439 51.5761C54.1451 51.8454 53.3962 51.9814 52.6409 51.9762C51.7703 51.979 50.909 51.8072 50.1147 51.4722C49.3203 51.1372 48.6112 50.6468 48.0346 50.0337C46.7335 48.7287 46.0349 46.9927 46.0914 45.205C46.016 43.4025 46.6904 41.6432 47.9716 40.3001C48.5422 39.6898 49.2466 39.2027 50.0363 38.8722C50.826 38.5417 51.6824 38.3756 52.5468 38.3852C53.3447 38.3807 54.1351 38.5304 54.869 38.825C55.6213 39.1406 56.3026 39.5884 56.876 40.1443L56.8726 38.7171ZM53.2469 41.3752C52.7489 41.3639 52.2539 41.4529 51.7955 41.6362C51.3371 41.8196 50.9256 42.093 50.5889 42.4382C49.8997 43.205 49.5217 44.1764 49.5217 45.1803C49.5217 46.1841 49.8997 47.1556 50.5889 47.9224C50.9238 48.2698 51.3338 48.5458 51.7915 48.7319C52.2492 48.918 52.744 49.01 53.2426 49.0016C53.7467 49.0147 54.2479 48.9268 54.7129 48.7435C55.178 48.5602 55.5961 48.2858 55.9394 47.9386C56.675 47.1752 57.059 46.169 57.0072 45.1401C57.0298 44.6413 56.9471 44.1432 56.7638 43.6746C56.5805 43.206 56.3003 42.7761 55.9394 42.4098C55.5918 42.0704 55.1726 41.8031 54.7086 41.6251C54.2446 41.4471 53.7461 41.3623 53.2452 41.376L53.2469 41.3752Z" fill="#263238"/>
<path d="M61.8147 38.7171H64.792V40.3439C65.0642 39.7548 65.5062 39.249 66.068 38.8834C66.5823 38.5554 67.1901 38.3812 67.8117 38.3836C68.3007 38.3935 68.7809 38.5084 69.2154 38.7195L68.1389 41.518C67.8328 41.3535 67.491 41.2564 67.1392 41.234C66.846 41.2551 66.5648 41.3528 66.3274 41.5159C66.0899 41.679 65.9056 41.9012 65.7951 42.1574C65.3324 43.3178 65.1454 44.5593 65.247 45.7949V51.6508H61.819L61.8147 38.7171Z" fill="#263238"/>
<path d="M78.7274 40.52L76.6012 42.5185C76.004 41.8506 75.1585 41.4218 74.2367 41.3192C73.9148 41.3027 73.5958 41.3841 73.3269 41.5513C73.2259 41.6151 73.1431 41.7014 73.086 41.8024C73.029 41.9035 72.9993 42.0162 72.9997 42.1306C73.0021 42.3094 73.0764 42.4808 73.2078 42.6102C73.5138 42.8613 73.8613 43.0638 74.2367 43.2098L75.5126 43.8053C76.5695 44.2271 77.5084 44.8728 78.256 45.6919C78.8298 46.4721 79.085 47.4207 78.9748 48.3635C78.8646 49.3063 78.3964 50.1802 77.6561 50.8247C76.653 51.6279 75.361 52.0399 74.0451 51.9761C73.1139 52.0025 72.1899 51.8149 71.3532 51.4298C70.5165 51.0446 69.7924 50.4735 69.2437 49.7659L71.3699 47.5954C71.7696 48.0326 72.2527 48.3958 72.7943 48.6664C73.234 48.9093 73.7306 49.0467 74.2402 49.0665C74.6325 49.0842 75.0195 48.9758 75.3374 48.7589C75.464 48.6803 75.5687 48.5743 75.6428 48.4498C75.7168 48.3252 75.758 48.1859 75.763 48.0433C75.763 47.5475 75.2657 47.0599 74.2617 46.5828L73.0964 46.0351C70.8709 44.9851 69.7596 43.6674 69.7625 42.0819C69.7599 41.584 69.8726 41.0914 70.0929 40.6386C70.3133 40.1857 70.6359 39.7834 71.0384 39.4595C71.92 38.7198 73.0723 38.3301 74.2532 38.3722C75.1331 38.3698 76.0013 38.5622 76.7874 38.9338C77.5736 39.3054 78.2556 39.8457 78.7783 40.5111L78.7274 40.52Z" fill="#263238"/>
</svg>
